<svg xmlns="http://www.w3.org/2000/svg" width="64" height="64" viewBox="0 0 64 64" fill="none">
  <rect x="24" y="24" width="16" height="16" rx="4" stroke="#38bdf8" stroke-width="3.5"/>
  <path d="M32 10v10M32 44v10M10 32h10M44 32h10" stroke="#cbd5e1" stroke-width="3.5" stroke-linecap="round"/>
  <path d="M32 10l-4 5M32 10l4 5M32 54l-4-5M32 54l4-5M10 32l5-4M10 32l5 4M54 32l-5-4M54 32l-5 4" stroke="#cbd5e1" stroke-width="3.5" stroke-linecap="round" stroke-linejoin="round"/>
  <path d="M20 20l-4-4M44 20l4-4M20 44l-4 4M44 44l4 4" stroke="#64748b" stroke-width="3.5" stroke-linecap="round"/>
</svg>
